<?xml version="1.0" encoding="utf-8"?>
<!-- Generator: Adobe Illustrator 19.1.0, SVG Export Plug-In . SVG Version: 6.00 Build 0)  -->
<svg version="1.1" baseProfile="tiny" id="Layer_1" xmlns="http://www.w3.org/2000/svg" xmlns:xlink="http://www.w3.org/1999/xlink"
	 x="0px" y="0px" viewBox="0 0 250 78" xml:space="preserve">
<g>
	<g>
		<g>
			<path fill="#020A0A" d="M102.4,70.5h-1.9l-0.6,1.2h-0.8l2.3-5l2.3,5h-0.8L102.4,70.5z M102.1,69.8l-0.5-1.1
				c-0.1-0.1-0.1-0.3-0.2-0.5c-0.1,0.2-0.1,0.4-0.2,0.5l-0.5,1.1H102.1z"/>
			<path fill="#020A0A" d="M112.1,69.3c0,0.2,0,0.3,0,0.5c0,1.4-0.8,2.2-2.2,2.2c-0.8,0-1.4-0.2-1.9-0.7c-0.5-0.5-0.7-1.1-0.7-1.8
				c0-0.7,0.3-1.4,0.7-1.8c0.5-0.5,1.1-0.7,1.8-0.7c0.8,0,1.4,0.3,1.8,0.8l-0.6,0.4c-0.3-0.4-0.7-0.6-1.2-0.6c-1,0-1.8,0.7-1.8,1.8
				c0,1.1,0.7,1.8,1.8,1.8c0.9,0,1.4-0.5,1.4-1.2c0,0,0,0,0-0.1h-1.2v-0.7H112.1z"/>
			<path fill="#020A0A" d="M116.3,66.9h2.7v0.7h-1.9v1.2h1.9v0.7h-1.9V71h1.9v0.7h-2.7V66.9z"/>
			<path fill="#020A0A" d="M123.3,66.7l3.1,3c0.2,0.2,0.4,0.4,0.5,0.6v-3.4h0.7v5l-3.1-3c-0.2-0.2-0.3-0.4-0.5-0.5v3.4h-0.7V66.7z"
				/>
			<path fill="#020A0A" d="M133.6,71.7h-0.8v-4.2h-1.3v-0.7h3.3v0.7h-1.3V71.7z"/>
			<path fill="#020A0A" d="M139.2,70.5c0.1,0.4,0.4,0.7,0.9,0.7c0.5,0,0.8-0.3,0.8-0.7c0-0.5-0.4-0.6-0.9-0.8
				c-0.9-0.4-1.3-0.7-1.3-1.5c0-0.8,0.6-1.3,1.5-1.3c0.7,0,1.2,0.3,1.4,0.8l-0.6,0.3c-0.2-0.3-0.4-0.4-0.7-0.4
				c-0.4,0-0.7,0.2-0.7,0.6c0,0.5,0.4,0.6,0.9,0.9c0.9,0.4,1.3,0.7,1.3,1.4c0,0.9-0.6,1.5-1.6,1.5c-0.8,0-1.4-0.4-1.5-1.1
				L139.2,70.5z"/>
			<path fill="#020A0A" d="M154,71.3c-0.5,0.4-0.9,0.6-1.5,0.6c-0.9,0-1.5-0.6-1.5-1.4c0-0.6,0.4-1,1.1-1.5l-0.2-0.2
				c-0.2-0.2-0.3-0.5-0.3-0.8c0-0.6,0.5-1.1,1.2-1.1c0.7,0,1.2,0.4,1.2,1c0,0.5-0.3,0.9-0.9,1.2l1,1.2c0.2-0.2,0.4-0.5,0.6-0.8
				l0.5,0.5c-0.2,0.3-0.4,0.5-0.6,0.8l0.8,0.9h-0.9L154,71.3z M152.5,69.6l-0.1,0.1c-0.4,0.3-0.6,0.5-0.6,0.8c0,0.4,0.3,0.8,0.8,0.8
				c0.3,0,0.7-0.1,1-0.5L152.5,69.6z M152.9,68.6c0.3-0.1,0.4-0.3,0.4-0.6c0-0.3-0.2-0.5-0.5-0.5c-0.3,0-0.5,0.2-0.5,0.5
				c0,0.1,0.1,0.3,0.2,0.4l0.2,0.3L152.9,68.6z"/>
			<path fill="#020A0A" d="M167.1,67.5c-1.1,0-1.8,0.8-1.8,1.8c0,1.1,0.7,1.8,1.7,1.8c0.6,0,1.1-0.2,1.6-0.6v0.9
				c-0.4,0.3-0.9,0.5-1.5,0.5c-0.7,0-1.4-0.3-1.9-0.7c-0.5-0.5-0.7-1.1-0.7-1.8c0-0.7,0.3-1.3,0.7-1.8s1.1-0.7,1.8-0.7
				c0.6,0,1.1,0.2,1.6,0.5l0,0.8C168.2,67.7,167.7,67.5,167.1,67.5z"/>
			<path fill="#020A0A" d="M177.2,71.1c-0.5,0.5-1.1,0.7-1.8,0.7c-0.7,0-1.3-0.3-1.8-0.7c-0.5-0.5-0.8-1.1-0.8-1.8
				c0-0.7,0.3-1.3,0.8-1.8c0.5-0.5,1.1-0.7,1.8-0.7s1.3,0.3,1.8,0.7c0.5,0.5,0.8,1.1,0.8,1.8C177.9,70,177.7,70.7,177.2,71.1z
				 M176.6,68.1c-0.3-0.3-0.8-0.5-1.2-0.5s-0.9,0.2-1.3,0.5c-0.3,0.3-0.5,0.8-0.5,1.3s0.2,0.9,0.5,1.3c0.3,0.3,0.8,0.5,1.3,0.5
				c0.5,0,0.9-0.2,1.2-0.5c0.3-0.3,0.5-0.8,0.5-1.3S176.9,68.4,176.6,68.1z"/>
			<path fill="#020A0A" d="M182.2,66.7l3.1,3c0.2,0.2,0.4,0.4,0.5,0.6v-3.4h0.7v5l-3.1-3c-0.2-0.2-0.3-0.4-0.5-0.5v3.4h-0.7V66.7z"
				/>
			<path fill="#020A0A" d="M191.4,70.5c0.1,0.4,0.4,0.7,0.9,0.7c0.5,0,0.8-0.3,0.8-0.7c0-0.5-0.4-0.6-0.9-0.8
				c-0.9-0.4-1.3-0.7-1.3-1.5c0-0.8,0.6-1.3,1.5-1.3c0.7,0,1.2,0.3,1.4,0.8l-0.6,0.3c-0.2-0.3-0.4-0.4-0.7-0.4
				c-0.4,0-0.7,0.2-0.7,0.6c0,0.5,0.4,0.6,0.9,0.9c0.9,0.4,1.3,0.7,1.3,1.4c0,0.9-0.6,1.5-1.6,1.5c-0.8,0-1.4-0.4-1.5-1.1
				L191.4,70.5z"/>
			<path fill="#020A0A" d="M198.9,66.9v2.9c0,0.9,0.4,1.3,1.2,1.3c0.8,0,1.2-0.4,1.2-1.3v-2.9h0.8v3c0,1.3-0.7,2-2,2
				c-1.3,0-2-0.6-2-2v-3H198.9z"/>
			<path fill="#020A0A" d="M206.5,66.9h0.8V71h1.8v0.7h-2.5V66.9z"/>
			<path fill="#020A0A" d="M214.3,71.7h-0.8v-4.2h-1.3v-0.7h3.3v0.7h-1.3V71.7z"/>
			<path fill="#020A0A" d="M221.7,70.5h-1.9l-0.6,1.2h-0.8l2.3-5l2.3,5h-0.8L221.7,70.5z M221.4,69.8l-0.5-1.1
				c-0.1-0.1-0.1-0.3-0.2-0.5c-0.1,0.2-0.1,0.4-0.2,0.5l-0.5,1.1H221.4z"/>
			<path fill="#020A0A" d="M226.9,66.7l3.1,3c0.2,0.2,0.4,0.4,0.5,0.6v-3.4h0.7v5l-3.1-3c-0.2-0.2-0.3-0.4-0.5-0.5v3.4h-0.7V66.7z"
				/>
			<path fill="#020A0A" d="M237.2,71.7h-0.8v-4.2h-1.3v-0.7h3.3v0.7h-1.3V71.7z"/>
			<path fill="#020A0A" d="M242.9,70.5c0.1,0.4,0.4,0.7,0.9,0.7c0.5,0,0.8-0.3,0.8-0.7c0-0.5-0.4-0.6-0.9-0.8
				c-0.9-0.4-1.3-0.7-1.3-1.5c0-0.8,0.6-1.3,1.5-1.3c0.7,0,1.2,0.3,1.4,0.8l-0.6,0.3c-0.2-0.3-0.4-0.4-0.7-0.4
				c-0.4,0-0.7,0.2-0.7,0.6c0,0.5,0.4,0.6,0.9,0.9c0.9,0.4,1.3,0.7,1.3,1.4c0,0.9-0.6,1.5-1.6,1.5c-0.8,0-1.4-0.4-1.5-1.1
				L242.9,70.5z"/>
		</g>
		<path fill="#020A0A" d="M88.5,41.1c0,11.5-8.5,20.1-20.4,20.1c-12,0-20.6-8.6-20.6-20.1c0-11.4,8.6-19.7,20.6-19.7
			C80,21.4,88.5,29.7,88.5,41.1z M76.6,41.2c0-4.9-3.4-8.9-8.5-8.9c-5.2,0-8.6,4-8.6,8.9c0,5.1,3.4,9.1,8.6,9.1
			C73.1,50.3,76.6,46.2,76.6,41.2z"/>
		<g>
			<path fill="#020A0A" d="M13.4,53.9v4.9c0,0.7-0.4,1.1-1.1,1.1H1.8c-0.7,0-1.1-0.4-1.1-1.1V7.7c0-0.7,0.4-1.1,1.1-1.1h10.4
				c0.7,0,1.1,0.4,1.1,1.1v18"/>
			<path fill="#020A0A" d="M45.4,41.1c0,11.5-8.5,20.1-20.4,20.1c-12,0-20.6-8.6-20.6-20.1C4.4,29.7,13,21.4,25,21.4
				C36.9,21.4,45.4,29.7,45.4,41.1z M33.4,41.1c0-5.7-4-10.4-9.9-10.4c-6.1,0-10,4.7-10,10.4c0,5.9,3.9,10.7,10,10.7
				C29.4,51.8,33.4,47.1,33.4,41.1z"/>
		</g>
		<path fill="#020A0A" d="M117.3,57.5c-3,2.3-6.4,3.7-10.4,3.7c-9.5,0-16.1-6.6-16.1-17.4V23.3c0-0.7,0.4-1.1,1.1-1.1h10.4
			c0.7,0,1.1,0.4,1.1,1.1v18.5c0,5.4,2.7,8,6.9,8c2.3,0,6.9-0.5,6.9-8.9l0-17.5c0-0.7,0.4-1.1,1.1-1.1h10.4c0.7,0,1.1,0.4,1.1,1.1
			l0.1,35.6c0,0.7-0.4,1.1-1.1,1.1h-10.4c-0.7,0-1.1-0.4-1.1-1.1L117.3,57.5z"/>
		<path fill="#020A0A" d="M177.6,24.7c3-2.3,6.4-3.7,10.4-3.7c9.5,0,16.1,6.6,16.1,17.4V59c0,0.7-0.4,1.1-1.1,1.1h-10.4
			c-0.7,0-1.1-0.4-1.1-1.1V40.5c0-5.4-2.7-8-6.9-8c-2.3,0-6.9,0.5-6.9,8.9l0,17.5c0,0.7-0.4,1.1-1.1,1.1h-10.4
			c-0.7,0-1.1-0.4-1.1-1.1L165,23.3c0-0.7,0.4-1.1,1.1-1.1h10.4c0.7,0,1.1,0.4,1.1,1.1L177.6,24.7z"/>
		<g>
			<g>
				<path fill="#020A0A" d="M132.6,23.3c0-0.7,0.4-1.1,1.1-1.1h10.4c0.7,0,1.1,0.4,1.1,1.1v7.6c1.5-3.5,3.3-5.1,4.8-6.3
					c2.4-2,6.1-2.6,10-2.6c0.2,0,0.5,0,0.6,0c0.2,0,0.5,0,1.1,0.1V33c-0.8-0.1-1.6-0.2-2.2-0.2c-0.6,0-1.2,0-1.6,0
					c-5.3,0-9.3,4.3-11.1,7.7c-1.5,3.5-1.5,9-1.5,13v5.5c0,0.7-0.4,1.1-1.1,1.1h-10.4c-0.7,0-1.1-0.4-1.1-1.1L132.6,23.3z"/>
			</g>
			<path fill="#020A0A" d="M161.6,22.1c0.7,0,1.1,0.4,1.1,1.1v8.7c0,0.6-0.4,1.1-1.1,1.1"/>
		</g>
		<g>
			<path fill="#020A0A" d="M231.7,49.8c0-0.7,0.4-1.1,1.1-1.1h10.7c1.2,0,0.9,0.8,0.6,1.6"/>
			<g>
				<path fill="#020A0A" d="M244.5,44.3h-26.6c0.8,3.8,3.4,6.8,8.4,6.8c2.8,0,4.4-0.6,5.5-2h12.4c-0.1,0.4-0.1,0.7-0.2,1.1
					c-2.6,6.6-9.2,10.7-17.5,10.7c-12.2,0-20.3-8.3-20.3-19.6c0-11.3,7.9-19.5,19.4-19.5c11.1,0,19.4,7,19.4,18.3c0,1.4,0,2.7-0.2,4
					C244.8,44.4,244.5,44.3,244.5,44.3z M218.1,37.2h15.4c-0.6-4.4-3.3-6.2-7.5-6.2C221.6,31,219.1,33.5,218.1,37.2z"/>
			</g>
		</g>
	</g>
	<text transform="matrix(1 0 0 1 243.0635 24.648)" fill="#1D1D1B" font-family="'Helvetica-Bold'" font-size="3.8852px">TM</text>
</g>
</svg>
