<?xml version="1.0" encoding="utf-8"?>
<!-- Generator: Adobe Illustrator 19.1.0, SVG Export Plug-In . SVG Version: 6.00 Build 0)  -->
<svg version="1.1" id="Layer_1" xmlns="http://www.w3.org/2000/svg" xmlns:xlink="http://www.w3.org/1999/xlink" x="0px" y="0px"
	 viewBox="0 0 102 22" enable-background="new 0 0 102 22" xml:space="preserve">
<metadata><?xpacket begin="﻿" id="W5M0MpCehiHzreSzNTczkc9d"?>
<x:xmpmeta xmlns:x="adobe:ns:meta/" x:xmptk="Adobe XMP Core 5.6-c067 79.157747, 2015/03/30-23:40:42        ">
   <rdf:RDF xmlns:rdf="http://www.w3.org/1999/02/22-rdf-syntax-ns#">
      <rdf:Description rdf:about=""
            xmlns:ExtensisFontSense="http://www.extensis.com/meta/FontSense/">
         <ExtensisFontSense:slug>
            <rdf:Bag>
               <rdf:li>
                  <rdf:Description>
                     <ExtensisFontSense:Family>Helvetica</ExtensisFontSense:Family>
                     <ExtensisFontSense:Version>002.000</ExtensisFontSense:Version>
                     <ExtensisFontSense:OutlineFileSize>33740</ExtensisFontSense:OutlineFileSize>
                     <ExtensisFontSense:KerningChecksum>667612</ExtensisFontSense:KerningChecksum>
                     <ExtensisFontSense:Foundry>Adobe Systems</ExtensisFontSense:Foundry>
                     <ExtensisFontSense:FontKind>PostScript</ExtensisFontSense:FontKind>
                     <ExtensisFontSense:Checksum>2327621124</ExtensisFontSense:Checksum>
                     <ExtensisFontSense:PostScriptName>Helvetica-Bold</ExtensisFontSense:PostScriptName>
                     <ExtensisFontSense:FontSense_1.2_Checksum>2327621124</ExtensisFontSense:FontSense_1.2_Checksum>
                  </rdf:Description>
               </rdf:li>
            </rdf:Bag>
         </ExtensisFontSense:slug>
      </rdf:Description>
   </rdf:RDF>
</x:xmpmeta>
                                                                                                    
                                                                                                    
                                                                                                    
                                                                                                    
                                                                                                    
                                                                                                    
                                                                                                    
                                                                                                    
                                                                                                    
                                                                                                    
                                                                                                    
                                                                                                    
                                                                                                    
                                                                                                    
                                                                                                    
                                                                                                    
                                                                                                    
                                                                                                    
                                                                                                    
                                                                                                    
                           
<?xpacket end="w"?></metadata>
<g>
	<path fill="#020A0A" d="M37.7,13.9c0,4.6-3.4,8-8.2,8c-4.8,0-8.2-3.4-8.2-8c0-4.5,3.4-7.9,8.2-7.9C34.4,6,37.7,9.3,37.7,13.9z
		 M33,13.9c0-2-1.4-3.5-3.4-3.5c-2.1,0-3.4,1.6-3.4,3.5c0,2,1.3,3.6,3.4,3.6C31.6,17.5,33,15.9,33,13.9z"/>
	<g>
		<path fill="#020A0A" d="M7.8,19v2c0,0.3-0.2,0.4-0.4,0.4H3.2c-0.3,0-0.4-0.2-0.4-0.4V0.5c0-0.3,0.2-0.4,0.4-0.4h4.2
			c0.3,0,0.4,0.2,0.4,0.4v7.2"/>
		<path fill="#020A0A" d="M20.5,13.9c0,4.6-3.4,8-8.2,8c-4.8,0-8.2-3.4-8.2-8C4.2,9.3,7.6,6,12.4,6C17.1,6,20.5,9.3,20.5,13.9z
			 M15.7,13.9c0-2.3-1.6-4.2-4-4.2c-2.4,0-4,1.9-4,4.2c0,2.4,1.6,4.3,4,4.3C14.1,18.1,15.7,16.2,15.7,13.9z"/>
	</g>
	<path fill="#020A0A" d="M49.2,20.4c-1.2,0.9-2.6,1.5-4.2,1.5c-3.8,0-6.4-2.6-6.4-6.9V6.8c0-0.3,0.2-0.4,0.4-0.4h4.2
		c0.3,0,0.4,0.2,0.4,0.4v7.4c0,2.1,1.1,3.2,2.8,3.2c0.9,0,2.7-0.2,2.7-3.5l0-7c0-0.3,0.2-0.4,0.4-0.4h4.2c0.3,0,0.4,0.2,0.4,0.4
		l0,14.2c0,0.3-0.2,0.4-0.4,0.4h-4.2c-0.3,0-0.4-0.2-0.4-0.4L49.2,20.4z"/>
	<path fill="#020A0A" d="M73.3,7.3c1.2-0.9,2.6-1.5,4.2-1.5c3.8,0,6.4,2.6,6.4,6.9V21c0,0.3-0.2,0.4-0.4,0.4h-4.2
		c-0.3,0-0.4-0.2-0.4-0.4v-7.4c0-2.1-1.1-3.2-2.8-3.2c-0.9,0-2.7,0.2-2.7,3.5l0,7c0,0.3-0.2,0.4-0.4,0.4h-4.2
		c-0.3,0-0.4-0.2-0.4-0.4l0-14.2c0-0.3,0.2-0.4,0.4-0.4h4.2c0.3,0,0.4,0.2,0.4,0.4L73.3,7.3z"/>
	<g>
		<g>
			<path fill="#020A0A" d="M55.4,6.8c0-0.3,0.2-0.4,0.4-0.4H60c0.3,0,0.4,0.2,0.4,0.4v3.1c0.6-1.4,1.3-2,1.9-2.5c1-0.8,2.4-1,4-1
				c0.1,0,0.2,0,0.2,0c0.1,0,0.2,0,0.4,0v4.3c-0.3,0-0.6-0.1-0.9-0.1c-0.3,0-0.5,0-0.6,0c-2.1,0-3.7,1.7-4.4,3.1
				c-0.6,1.4-0.6,3.6-0.6,5.2V21c0,0.3-0.2,0.4-0.4,0.4h-4.2c-0.3,0-0.4-0.2-0.4-0.4L55.4,6.8z"/>
		</g>
		<path fill="#020A0A" d="M66.9,6.3c0.3,0,0.4,0.2,0.4,0.4v3.5c0,0.3-0.2,0.4-0.4,0.4"/>
	</g>
	<g>
		<path fill="#020A0A" d="M94.9,17.3c0-0.3,0.2-0.4,0.4-0.4h4.3c0.5,0,0.4,0.3,0.2,0.6"/>
		<g>
			<path fill="#020A0A" d="M100,15.2H89.4c0.3,1.5,1.3,2.7,3.4,2.7c1.1,0,1.7-0.2,2.2-0.8h5c0,0.1,0,0.3-0.1,0.4
				c-1,2.6-3.7,4.3-7,4.3c-4.9,0-8.1-3.3-8.1-7.8c0-4.5,3.1-7.8,7.7-7.8c4.4,0,7.7,2.8,7.7,7.3c0,0.6,0,1.1-0.1,1.6
				C100.1,15.2,100,15.2,100,15.2z M89.5,12.3h6.1c-0.2-1.7-1.3-2.5-3-2.5C90.9,9.8,89.9,10.8,89.5,12.3z"/>
		</g>
	</g>
	<text transform="matrix(1 0 0 1 99.4277 7.2974)" fill="#1D1D1B" font-family="'Helvetica-Bold'" font-size="1.5506px">TM</text>
</g>
</svg>
